<?xml version="1.0" standalone="no"?><!DOCTYPE svg PUBLIC "-//W3C//DTD SVG 1.1//EN" "http://www.w3.org/Graphics/SVG/1.1/DTD/svg11.dtd"><svg class="icon" width="200px" height="200.00px" viewBox="0 0 1024 1024" version="1.1" xmlns="http://www.w3.org/2000/svg"><path d="M346.148571 412.141714v200.137143h-86.144c-84.004571 0-152.996571 66.432-152.996571 151.296 0 84.845714 68.992 153.417143 152.996571 153.417143 84.425143 0 152.996571-68.571429 152.996572-153.417143V677.851429h197.577143v85.723428c0 84.845714 68.992 153.417143 153.417143 153.417143 84.004571 0 152.996571-68.571429 152.996571-153.417143 0-84.845714-68.992-151.296-152.996571-151.296h-86.564572V412.16h86.564572c84.004571 0 152.996571-66.432 152.996571-151.277714 0-84.864-68.992-153.856-152.996571-153.856-84.425143 0-153.417143 68.992-153.417143 153.856v85.705143H413.001143v-85.705143c0-84.864-68.571429-153.856-152.996572-153.856-84.004571 0-152.996571 68.992-152.996571 153.856 0 84.845714 68.992 151.277714 152.996571 151.277714zM260.004571 347.428571c-46.72 0-86.144-39.003429-86.144-86.564571 0-47.579429 39.424-87.003429 86.125715-87.003429 47.158857 0 86.162286 39.424 86.162285 87.003429V347.428571z m503.990858 0h-86.564572v-86.564571c0-47.579429 39.424-87.003429 86.564572-87.003429 46.72 0 86.144 39.424 86.144 87.003429 0 47.561143-39.424 86.564571-86.125715 86.564571zM413.001143 613.138286V411.282286h197.577143v201.874285zM260.004571 676.571429h86.125715v86.564571c0 47.579429-38.985143 86.582857-86.125715 86.582857-46.72 0-86.144-39.003429-86.144-86.582857 0-47.561143 39.424-86.564571 86.125715-86.564571z m503.990858 0c46.72 0 86.144 39.003429 86.144 86.564571 0 47.579429-39.424 86.582857-86.125715 86.582857-47.158857 0-86.582857-39.003429-86.582857-86.582857V676.571429z" /></svg>